# xmcd CD database file
#
# Track frame offsets:
#	150
#	45805
#	69907
#	98954
#	133944
#	162251
#	201786
#	234550
#
# Disc length: 3561 seconds
#
# Revision: 1
# Processed by: cddbd v1.4PL0 Copyright (c) Steve Scherf et al.
# Submitted via: CDex 1.51
#
DISCID=640de708
DTITLE=Pilates Body Control - Body Control
DYEAR=2001
DGENRE=New Age
TTITLE0=Llewellyn - A New Beginning
TTITLE1=Llewellyn - Lynne's Song
TTITLE2=Llewellyn - The Healing Wheel
TTITLE3=Llewellyn - Circle Of Chalk
TTITLE4=Llewellyn - On A Midsummer Breeze
TTITLE5=Llewellyn - With Wings To Fly
TTITLE6=Llewellyn - Returning Home
TTITLE7=Llewellyn - A New Beginning (Reprise)
EXTD=YEAR: 2001
EXTT0=
EXTT1=
EXTT2=
EXTT3=
EXTT4=
EXTT5=
EXTT6=
EXTT7=
PLAYORDER=
